<svg xmlns="http://www.w3.org/2000/svg" xmlns:xlink="http://www.w3.org/1999/xlink" width="1500" height="1500" viewBox="0 0 1500 1500">
  <defs>
    <clipPath id="clip-undraw_business_shop_qw-5-t">
      <rect width="1500" height="1500"/>
    </clipPath>
  </defs>
  <g id="undraw_business_shop_qw-5-t" clip-path="url(#clip-undraw_business_shop_qw-5-t)">
    <rect width="1500" height="1500" fill="#fff"/>
    <g id="undraw_business_shop_qw-5-t-2" data-name="undraw_business_shop_qw-5-t">
      <rect id="Rectangle_89" data-name="Rectangle 89" width="1500" height="1500" opacity="0"/>
      <circle id="Ellipse_83" data-name="Ellipse 83" cx="8.278" cy="8.278" r="8.278" transform="translate(240.934 96.086)" fill="#f2f2f2"/>
      <path id="Path_362" data-name="Path 362" d="M794.233,587.977l6.376,46.76-44.634,4.25,6.376-57.386Z" transform="translate(542.317 564.527)" fill="#c95636"/>
      <path id="Path_363" data-name="Path 363" d="M846.951,303.812S851.2,361.2,851.2,363.324,821.446,512.1,821.446,512.1s-42.509,80.766,0,78.641S851.2,514.23,851.2,514.23l44.634-123.275-19.129-87.142Z" transform="translate(279.182 206.813)" fill="#a0616a"/>
      <path id="Path_364" data-name="Path 364" d="M696.068,587.977l-6.376,46.76,44.634,4.25L727.95,581.6Z" transform="translate(500.204 564.527)" fill="#c95636"/>
      <path id="Path_365" data-name="Path 365" d="M847.928,432.709,837.3,447.587s-6.376,63.763,0,85.017S856.43,651.628,856.43,658s2.125,10.627,0,12.753-8.5,2.125-4.251,6.376,4.251,17,4.251,17v10.627l27.63,157.282s-17,19.129-4.251,19.129,59.512,0,57.386-21.254l-4.251-2.125s-6.376-140.278-4.251-146.654,0-19.129,0-19.129-4.251-6.376,0-8.5,4.251-19.129,4.251-19.129L952.074,534.73s17,87.143,27.63,95.644,8.5,29.756,8.5,29.756l8.5,187.038s-8.5,21.254,0,25.505,44.634,19.129,46.759-2.125,12.753-206.166,12.753-214.668-2.125-12.753,0-19.129-2.125-6.376,0-6.376-4.251-6.376-4.251-10.627V515.6s2.125-21.254,4.251-25.505-2.125-8.5,0-14.878-4.251-27.631-4.251-27.631l-95.644-25.505Z" transform="translate(299.459 281.958)" fill="#3c7745"/>
      <path id="Path_366" data-name="Path 366" d="M911.649,723.835s10.627-10.627-4.251-10.627a69.181,69.181,0,0,0-27.63,6.376L869.14,757.842s-43.571,35.07,5.314,30.819S915.9,787.6,915.9,787.6s14.878-4.251,17-8.5-4.251-65.888-4.251-65.888S922.276,730.211,911.649,723.835Z" transform="translate(310.127 466.927)"/>
      <path id="Path_367" data-name="Path 367" d="M954.9,723.835s-10.627-10.627,4.251-10.627a69.184,69.184,0,0,1,27.631,6.376l10.627,38.258s43.571,35.069-5.313,30.819-47.822-1.063-47.822-1.063-14.878-4.251-17-8.5S937.9,713.208,937.9,713.208,944.273,730.211,954.9,723.835Z" transform="translate(358.27 466.927)"/>
      <circle id="Ellipse_155" data-name="Ellipse 155" cx="55.261" cy="55.261" r="55.261" transform="translate(1119.756 232.195)" fill="#c95636"/>
      <path id="Path_368" data-name="Path 368" d="M847.9,200.3s8.5,42.509,8.5,48.885,36.132,25.505,36.132,25.505l40.383-51.01s-25.505-36.132-25.505-44.634Z" transform="translate(307.991 127.541)" fill="#c95636"/>
      <path id="Path_369" data-name="Path 369" d="M899.6,243.12s-18.525-4.931-24.14-13.092c0,0-58.751,57.726-58.751,68.353l46.759,82.892s0,29.756,4.251,31.881,0,0,0,8.5-12.753,63.763-8.5,72.265,8.5,2.125,4.251,14.878-14.878,80.766-14.878,80.766,38.258-12.753,93.519,8.5,121.149-8.5,121.149-8.5-17-38.258-12.753-51.01-10.627-36.132-10.627-36.132l-10.627-195.539s14.878-87.142,4.251-91.393l-21.254-8.5-68.065-8.365S927.227,240.995,899.6,243.12Z" transform="translate(288.173 139.98)" fill="#ff8e28"/>
      <path id="Path_370" data-name="Path 370" d="M839.794,250.526,818.54,265.4s-10.627,31.881,0,46.759S833.418,348.3,833.418,348.3l42.509-4.251Z" transform="translate(286.338 172.957)" fill="#ff8e28"/>
      <path id="Path_371" data-name="Path 371" d="M841.012,144.866l-9.586-3.838s20.043-22.066,47.929-20.147l-7.843-8.635s19.171-7.675,36.6,12.472c9.162,10.591,19.762,23.04,26.37,37.064h10.266l-4.284,9.434,15,9.434-15.392-1.695a52.2,52.2,0,0,1-1.456,24.433l.412,7.457s-17.841-27.6-17.841-31.441V189s-9.586-8.634-9.586-14.391l-5.229,6.716-2.614-10.553-32.243,10.553,5.228-8.634L856.7,175.567l7.843-10.553s-22.657,12.472-23.529,23.025-12.2,23.985-12.2,23.985l-5.228-9.594S815.741,159.257,841.012,144.866Z" transform="translate(291.813 84.188)"/>
      <rect id="Rectangle_18" data-name="Rectangle 18" width="844.603" height="593.306" transform="translate(301.039 657.533)" fill="#f8eee7"/>
      <rect id="Rectangle_19" data-name="Rectangle 19" width="212.07" height="370.204" transform="translate(372.138 883.906)" fill="#e8cfbe"/>
      <rect id="Rectangle_20" data-name="Rectangle 20" width="57.126" height="53.253" transform="translate(411.365 906.115)" fill="#f2f2f2"/>
      <rect id="Rectangle_21" data-name="Rectangle 21" width="57.126" height="53.253" transform="translate(487.855 906.115)" fill="#f2f2f2"/>
      <rect id="Rectangle_22" data-name="Rectangle 22" width="57.126" height="55.189" transform="translate(411.365 978.733)" fill="#f2f2f2"/>
      <rect id="Rectangle_23" data-name="Rectangle 23" width="57.126" height="55.189" transform="translate(487.855 978.733)" fill="#f2f2f2"/>
      <circle id="Ellipse_156" data-name="Ellipse 156" cx="13.484" cy="13.484" r="13.484" transform="translate(543.756 1080.447)" fill="#ff8e28"/>
      <rect id="Rectangle_24" data-name="Rectangle 24" width="419.237" height="351.816" transform="translate(655.307 848.764)" fill="#e8cfbe"/>
      <path id="Path_372" data-name="Path 372" d="M1113.324,461.74H92.2l68.083-142.345,15.237-31.872,19.933-41.679,15.237-31.872,17.664-36.922h804.519l10.432,36.922,9.009,31.872,11.781,41.679,9.009,31.872Z" transform="translate(120.58 307.491)" fill="#e8cfbe"/>
      <rect id="Rectangle_25" data-name="Rectangle 25" width="14.71" height="90.712" transform="translate(670.018 994.639)" fill="#f8eee7"/>
      <rect id="Rectangle_26" data-name="Rectangle 26" width="14.71" height="11.033" transform="translate(670.018 1008.123)" fill="#ff8e28"/>
      <rect id="Rectangle_27" data-name="Rectangle 27" width="14.71" height="11.033" transform="translate(670.018 1060.834)" fill="#ff8e28"/>
      <rect id="Rectangle_28" data-name="Rectangle 28" width="35.549" height="90.712" transform="translate(692.082 994.639)" fill="#f8eee7"/>
      <rect id="Rectangle_29" data-name="Rectangle 29" width="35.549" height="11.033" transform="translate(692.082 1008.123)" fill="#ff8e28"/>
      <rect id="Rectangle_30" data-name="Rectangle 30" width="35.549" height="11.033" transform="translate(692.082 1060.834)" fill="#ff8e28"/>
      <rect id="Rectangle_31" data-name="Rectangle 31" width="14.71" height="90.712" transform="translate(736.213 994.639)" fill="#f8eee7"/>
      <rect id="Rectangle_32" data-name="Rectangle 32" width="14.71" height="11.033" transform="translate(736.213 1008.123)" fill="#ff8e28"/>
      <rect id="Rectangle_33" data-name="Rectangle 33" width="14.71" height="11.033" transform="translate(736.213 1060.834)" fill="#ff8e28"/>
      <rect id="Rectangle_34" data-name="Rectangle 34" width="14.71" height="90.712" transform="translate(758.277 994.639)" fill="#f8eee7"/>
      <rect id="Rectangle_35" data-name="Rectangle 35" width="14.71" height="11.033" transform="translate(758.277 1008.123)" fill="#ff8e28"/>
      <rect id="Rectangle_36" data-name="Rectangle 36" width="14.71" height="11.033" transform="translate(758.277 1060.834)" fill="#ff8e28"/>
      <rect id="Rectangle_37" data-name="Rectangle 37" width="14.71" height="90.712" transform="translate(773.405 1000.146) rotate(-20.654)" fill="#f8eee7"/>
      <rect id="Rectangle_38" data-name="Rectangle 38" width="14.71" height="11.033" transform="translate(778.162 1012.764) rotate(-20.654)" fill="#ff8e28"/>
      <rect id="Rectangle_39" data-name="Rectangle 39" width="14.71" height="11.033" transform="translate(796.755 1062.088) rotate(-20.654)" fill="#ff8e28"/>
      <rect id="Rectangle_40" data-name="Rectangle 40" width="35.549" height="90.712" transform="translate(1025.511 994.639)" fill="#f8eee7"/>
      <rect id="Rectangle_41" data-name="Rectangle 41" width="35.549" height="11.033" transform="translate(1025.511 1008.123)" fill="#ff8e28"/>
      <rect id="Rectangle_42" data-name="Rectangle 42" width="35.549" height="11.033" transform="translate(1025.511 1060.834)" fill="#ff8e28"/>
      <rect id="Rectangle_43" data-name="Rectangle 43" width="14.71" height="90.712" transform="translate(1002.22 994.639)" fill="#f8eee7"/>
      <rect id="Rectangle_44" data-name="Rectangle 44" width="14.71" height="11.033" transform="translate(1002.22 1008.123)" fill="#ff8e28"/>
      <rect id="Rectangle_45" data-name="Rectangle 45" width="14.71" height="11.033" transform="translate(1002.22 1060.834)" fill="#ff8e28"/>
      <rect id="Rectangle_46" data-name="Rectangle 46" width="14.71" height="90.712" transform="translate(980.154 994.639)" fill="#f8eee7"/>
      <rect id="Rectangle_47" data-name="Rectangle 47" width="14.71" height="11.033" transform="translate(980.154 1008.123)" fill="#ff8e28"/>
      <rect id="Rectangle_48" data-name="Rectangle 48" width="14.71" height="11.033" transform="translate(980.154 1060.834)" fill="#ff8e28"/>
      <rect id="Rectangle_49" data-name="Rectangle 49" width="90.712" height="14.71" transform="translate(933.991 1079.842) rotate(-69.346)" fill="#f8eee7"/>
      <rect id="Rectangle_50" data-name="Rectangle 50" width="11.033" height="14.71" transform="translate(957.34 1017.901) rotate(-69.346)" fill="#ff8e28"/>
      <rect id="Rectangle_51" data-name="Rectangle 51" width="11.033" height="14.71" transform="translate(938.748 1067.224) rotate(-69.346)" fill="#ff8e28"/>
      <rect id="Rectangle_52" data-name="Rectangle 52" width="419.237" height="8.581" transform="translate(655.307 1085.351)" fill="#f2f2f2"/>
      <rect id="Rectangle_53" data-name="Rectangle 53" width="77.228" height="90.712" transform="translate(837.957 994.639)" fill="#f8eee7"/>
      <rect id="Rectangle_54" data-name="Rectangle 54" width="39.227" height="17.162" transform="translate(856.958 1014.252)" fill="#ff8e28"/>
      <rect id="Rectangle_55" data-name="Rectangle 55" width="7.355" height="78.454" transform="translate(861.248 848.764)" fill="#ff8e28"/>
      <circle id="Ellipse_157" data-name="Ellipse 157" cx="12.258" cy="12.258" r="12.258" transform="translate(852.667 914.959)" fill="#ff8e28"/>
      <path id="Path_373" data-name="Path 373" d="M1012.2,231.5H155.337l15.237-31.872h832.615Z" transform="translate(160.695 321.836)" fill="#f8eee7"/>
      <path id="Path_374" data-name="Path 374" d="M1046.652,276.475H133.831L149.068,244.6h888.575Z" transform="translate(147.031 350.411)" fill="#f8eee7"/>
      <path id="Path_375" data-name="Path 375" d="M1007.034,262.223s-12.308,31.649-9.737,62.963a33.186,33.186,0,0,0,5.486,15.678h0L852,412.45s-68.132,7.054-51.128,36.81,78.641-14.878,78.641-14.878,161.533-23.38,174.285-46.759,21.254-121.149,21.254-121.149Z" transform="translate(276.38 180.389)" fill="#c95636"/>
      <path id="Path_376" data-name="Path 376" d="M935.556,208.937h31.881s23.38,4.251,29.756,46.759,12.752,53.136,6.376,53.136-82.891-2.125-82.891-4.251S935.556,208.937,935.556,208.937Z" transform="translate(354.234 146.533)" fill="#ff8e28"/>
      <circle id="Ellipse_158" data-name="Ellipse 158" cx="163.536" cy="163.536" r="163.536" transform="translate(62 663.329)" fill="#f8eee7"/>
      <circle id="Ellipse_159" data-name="Ellipse 159" cx="140.641" cy="140.641" r="140.641" transform="translate(84.896 686.224)" fill="#e8cfbe"/>
      <path id="Path_377" data-name="Path 377" d="M285.484,612.583v-20.47c-10.347-.2-21.052-3.851-27.3-8.918l4.281-13.579a43.633,43.633,0,0,0,25.691,8.714c12.667,0,21.231-8.309,21.231-19.861,0-11.147-6.958-18.038-20.16-24.118-18.2-8.106-29.437-17.43-29.437-35.062,0-16.823,10.526-29.591,26.94-32.631v-20.47h11.061v19.659a43.407,43.407,0,0,1,23.193,7.093l-4.461,13.377a39.423,39.423,0,0,0-22.479-6.891c-13.737,0-18.911,9.323-18.911,17.43,0,10.539,6.6,15.808,22.123,23.105,18.375,8.512,27.653,19.051,27.653,37.089,0,16.011-9.813,31.01-28.189,34.453v21.08Z" transform="translate(-66.687 297.273)" fill="#ff8e28"/>
      <path id="Path_304" data-name="Path 304" d="M1737.91,657.743H510.436a2.4,2.4,0,1,1,0-4.743H1737.91a2.4,2.4,0,1,1,0,4.743Z" transform="translate(-266.706 601.523)" fill="#918b87"/>
      <circle id="Ellipse_202" data-name="Ellipse 202" cx="5.5" cy="5.5" r="5.5" transform="translate(1150 279)"/>
      <circle id="Ellipse_203" data-name="Ellipse 203" cx="5.5" cy="5.5" r="5.5" transform="translate(1187 279)"/>
      <g id="Group_40" data-name="Group 40" transform="translate(71.233)">
        <path id="Path_688" data-name="Path 688" d="M662.264,307.891c-14.176.907-29.623-.053-46.055,0V270.268a166,166,0,0,0,46.055,0Z" transform="translate(245.346 25.761)" fill="#e8cfbe"/>
        <rect id="Rectangle_91" data-name="Rectangle 91" width="619.734" height="17.311" transform="translate(368.767 202.55)" fill="#f8eee7"/>
        <rect id="Rectangle_92" data-name="Rectangle 92" width="619.734" height="17.311" transform="translate(368.767 325.458)" fill="#f8eee7"/>
        <circle id="Ellipse_211" data-name="Ellipse 211" cx="34.622" cy="34.622" r="34.622" transform="translate(850.013 240.634)" fill="#e8cfbe"/>
        <circle id="Ellipse_212" data-name="Ellipse 212" cx="27.698" cy="27.698" r="27.698" transform="translate(856.938 247.558)" fill="#fff"/>
        <circle id="Ellipse_213" data-name="Ellipse 213" cx="6.924" cy="6.924" r="6.924" transform="translate(877.71 268.331)" fill="#ff8e28"/>
        <rect id="Rectangle_93" data-name="Rectangle 93" width="3.462" height="27.698" transform="translate(908.87 273.525) rotate(90)" fill="#ff8e28"/>
        <rect id="Rectangle_94" data-name="Rectangle 94" width="3.462" height="27.698" transform="translate(886.366 278.718) rotate(180)" fill="#ff8e28"/>
        <rect id="Rectangle_104" data-name="Rectangle 104" width="22.908" height="90.677" transform="translate(457.268 241.009)" fill="#e8cfbe"/>
        <rect id="Rectangle_105" data-name="Rectangle 105" width="22.908" height="10.499" transform="translate(457.268 255.326)" fill="#ff8e28"/>
        <rect id="Rectangle_106" data-name="Rectangle 106" width="22.908" height="10.499" transform="translate(457.268 301.142)" fill="#ff8e28"/>
        <rect id="Rectangle_107" data-name="Rectangle 107" width="22.908" height="90.677" transform="translate(421.951 241.009)" fill="#e8cfbe"/>
        <rect id="Rectangle_108" data-name="Rectangle 108" width="22.908" height="10.499" transform="translate(421.951 255.326)" fill="#ff8e28"/>
        <rect id="Rectangle_109" data-name="Rectangle 109" width="22.908" height="10.499" transform="translate(421.951 301.142)" fill="#ff8e28"/>
        <rect id="Rectangle_110" data-name="Rectangle 110" width="22.908" height="90.677" transform="matrix(0.896, -0.444, 0.444, 0.896, 479.383, 250.798)" fill="#e8cfbe"/>
        <rect id="Rectangle_111" data-name="Rectangle 111" width="22.908" height="10.499" transform="matrix(0.896, -0.444, 0.444, 0.896, 485.735, 263.629)" fill="#ff8e28"/>
        <rect id="Rectangle_112" data-name="Rectangle 112" width="22.908" height="10.499" transform="matrix(0.896, -0.444, 0.444, 0.896, 506.063, 304.688)" fill="#ff8e28"/>
        <rect id="Rectangle_113" data-name="Rectangle 113" width="22.908" height="90.677" transform="translate(671.924 241.009)" fill="#e8cfbe"/>
        <rect id="Rectangle_114" data-name="Rectangle 114" width="22.908" height="10.499" transform="translate(671.924 255.326)" fill="#ff8e28"/>
        <rect id="Rectangle_115" data-name="Rectangle 115" width="22.908" height="10.499" transform="translate(671.924 301.142)" fill="#ff8e28"/>
        <rect id="Rectangle_116" data-name="Rectangle 116" width="22.908" height="90.677" transform="translate(636.608 241.009)" fill="#e8cfbe"/>
        <rect id="Rectangle_117" data-name="Rectangle 117" width="22.908" height="10.499" transform="translate(636.608 255.326)" fill="#ff8e28"/>
        <rect id="Rectangle_118" data-name="Rectangle 118" width="22.908" height="10.499" transform="translate(636.608 301.142)" fill="#ff8e28"/>
        <rect id="Rectangle_119" data-name="Rectangle 119" width="22.908" height="90.677" transform="matrix(0.896, -0.444, 0.444, 0.896, 694.04, 250.798)" fill="#e8cfbe"/>
        <rect id="Rectangle_120" data-name="Rectangle 120" width="22.908" height="10.499" transform="matrix(0.896, -0.444, 0.444, 0.896, 700.393, 263.629)" fill="#ff8e28"/>
        <rect id="Rectangle_121" data-name="Rectangle 121" width="22.908" height="10.499" transform="matrix(0.896, -0.444, 0.444, 0.896, 720.721, 304.688)" fill="#ff8e28"/>
      </g>
    </g>
  </g>
</svg>
